<?xml version="1.0" encoding="iso-8859-1"?>
<!-- Generator: Adobe Illustrator 19.0.0, SVG Export Plug-In . SVG Version: 6.00 Build 0)  -->
<svg version="1.1" id="Layer_1" xmlns="http://www.w3.org/2000/svg" xmlns:xlink="http://www.w3.org/1999/xlink" x="0px" y="0px"
	 viewBox="0 0 504 504" style="enable-background:new 0 0 504 504;" xml:space="preserve">
<circle style="fill:#90DFAA;" cx="252" cy="252" r="252"/>
<polygon style="fill:#2B3B4E;" points="301.3,378.2 136.2,422.3 136.2,125.8 301.3,81.7 "/>
<rect x="136.2" y="125.8" style="fill:#324A5E;" width="231.6" height="296.5"/>
<g>
	<path style="fill:#E6E9EE;" d="M219.7,273.2c-4.9,2.6-9.4,5.9-13.4,9.6c-10.4-10.9-17-25.4-17.5-41.4h26.1
		C215.1,253,216.8,263.8,219.7,273.2z"/>
	<path style="fill:#E6E9EE;" d="M214.8,236.7h-26.1c0.6-15.8,6.9-30.1,17-40.9c4.1,3.8,8.7,7.1,13.7,9.9
		C216.7,214.8,215,225.4,214.8,236.7z"/>
	<path style="fill:#E6E9EE;" d="M220.9,201.2c-4.3-2.4-8.3-5.3-11.9-8.7c7.4-6.8,16.4-11.9,26.5-14.6
		C229.5,183.1,224.5,191.2,220.9,201.2z"/>
	<path style="fill:#E6E9EE;" d="M235.5,300.1c-9.8-2.6-18.6-7.6-25.9-14.1c3.5-3.2,7.4-6,11.6-8.4
		C224.8,287.2,229.7,295,235.5,300.1z"/>
	<path style="fill:#E6E9EE;" d="M249.7,175.9v33.5c-8.8-0.3-17.1-2.4-24.6-6C230.5,187.8,239.5,177.3,249.7,175.9z"/>
	<path style="fill:#E6E9EE;" d="M223.7,207.8c8,3.7,16.8,5.9,26,6.2v22.7h-30.3C219.6,226.2,221.1,216.4,223.7,207.8z"/>
	<path style="fill:#E6E9EE;" d="M219.4,241.3h30.3V265c-9.2,0.3-17.9,2.4-25.8,6C221.2,262.3,219.6,252.1,219.4,241.3z"/>
	<path style="fill:#E6E9EE;" d="M225.4,275.5c7.4-3.5,15.7-5.5,24.3-5.9v32.5C239.6,300.8,230.9,290.5,225.4,275.5z"/>
	<path style="fill:#E6E9EE;" d="M278.6,275.4c-5.5,15.1-14.3,25.3-24.3,26.7v-32.5C263,269.9,271.2,272,278.6,275.4z"/>
	<path style="fill:#E6E9EE;" d="M278.9,203.3c-7.5,3.5-15.8,5.7-24.6,6v-33.5C264.5,177.3,273.4,187.8,278.9,203.3z"/>
	<path style="fill:#E6E9EE;" d="M280.1,271.1c-7.9-3.6-16.6-5.7-25.8-6v-23.7h30.3C284.4,252.1,282.8,262.3,280.1,271.1z"/>
	<path style="fill:#E6E9EE;" d="M284.6,236.7h-30.3V214c9.3-0.3,18.1-2.5,26-6.2C282.9,216.4,284.4,226.2,284.6,236.7z"/>
	<path style="fill:#E6E9EE;" d="M282.8,277.6c4.2,2.3,8.1,5.1,11.6,8.4c-7.3,6.6-16.2,11.5-25.9,14.2
		C274.3,295,279.2,287.2,282.8,277.6z"/>
	<path style="fill:#E6E9EE;" d="M268.5,177.9c10,2.7,19.1,7.8,26.5,14.6c-3.6,3.3-7.6,6.2-11.9,8.7
		C279.5,191.2,274.5,183.1,268.5,177.9z"/>
	<path style="fill:#E6E9EE;" d="M289.1,241.3h26.1c-0.6,16-7.1,30.5-17.5,41.4c-4-3.7-8.6-6.9-13.4-9.6
		C287.2,263.8,288.9,253,289.1,241.3z"/>
	<path style="fill:#E6E9EE;" d="M284.5,205.7c5-2.7,9.5-6.1,13.6-9.9c10.1,10.8,16.5,25.1,17,40.9H289
		C289,225.4,287.3,214.8,284.5,205.7z"/>
</g>
<g>
	<path style="fill:#FFFFFF;" d="M213.3,339.8c2.5,2.1,3.7,5.3,3.7,9.7c0,4.3-1.3,7.5-3.8,9.5s-6.4,3-11.6,3h-4.7v9.8H189v-35.2h12.4
		C206.9,336.6,210.8,337.7,213.3,339.8z M207.5,353.6c0.9-1.1,1.4-2.6,1.4-4.6s-0.6-3.5-1.8-4.3c-1.2-0.9-3.1-1.3-5.7-1.3h-4.5v11.8
		h5.3C204.8,355.2,206.6,354.7,207.5,353.6z"/>
	<path style="fill:#FFFFFF;" d="M245.8,371.8l-3.3-7.6h-14.7l-3.3,7.6h-8.4l15.2-35.2h7.6l15.2,35.2H245.8z M235.2,347.1l-4.4,10.2
		h8.8L235.2,347.1z"/>
	<path style="fill:#FFFFFF;" d="M265.9,343.7c-0.8,0.6-1.1,1.4-1.1,2.5s0.5,1.8,1.4,2.4s3.1,1.3,6.4,2.1c3.3,0.8,5.9,2.1,7.8,3.7
		c1.8,1.6,2.8,4,2.8,7.2s-1.2,5.7-3.5,7.7c-2.4,2-5.5,2.9-9.3,2.9c-5.6,0-10.6-2.1-15.1-6.2l4.7-5.7c3.8,3.3,7.3,5,10.5,5
		c1.4,0,2.6-0.3,3.4-0.9s1.2-1.5,1.2-2.5c0-1.1-0.4-1.9-1.3-2.5s-2.6-1.2-5.2-1.9c-4.1-1-7.1-2.2-9-3.8c-1.9-1.6-2.8-4-2.8-7.3
		s1.2-5.9,3.6-7.7c2.4-1.8,5.4-2.7,9-2.7c2.3,0,4.7,0.4,7,1.2c2.4,0.8,4.4,1.9,6.1,3.4l-4,5.7c-3.1-2.3-6.2-3.5-9.5-3.5
		C267.7,342.7,266.7,343.1,265.9,343.7z"/>
	<path style="fill:#FFFFFF;" d="M297.8,343.7c-0.8,0.6-1.1,1.4-1.1,2.5s0.5,1.8,1.4,2.4s3.1,1.3,6.4,2.1c3.3,0.8,5.9,2.1,7.8,3.7
		c1.8,1.6,2.8,4,2.8,7.2s-1.2,5.7-3.5,7.7c-2.4,2-5.5,2.9-9.3,2.9c-5.6,0-10.6-2.1-15.1-6.2l4.7-5.7c3.8,3.3,7.3,5,10.5,5
		c1.4,0,2.6-0.3,3.4-0.9s1.2-1.5,1.2-2.5c0-1.1-0.4-1.9-1.3-2.5s-2.6-1.2-5.2-1.9c-4.1-1-7.1-2.2-9-3.8c-1.9-1.6-2.8-4-2.8-7.3
		s1.2-5.9,3.6-7.7c2.4-1.8,5.4-2.7,9-2.7c2.3,0,4.7,0.4,7,1.2c2.4,0.8,4.4,1.9,6.1,3.4l-4,5.7c-3.1-2.3-6.2-3.5-9.5-3.5
		C299.5,342.7,298.5,343.1,297.8,343.7z"/>
</g>
<g>
</g>
<g>
</g>
<g>
</g>
<g>
</g>
<g>
</g>
<g>
</g>
<g>
</g>
<g>
</g>
<g>
</g>
<g>
</g>
<g>
</g>
<g>
</g>
<g>
</g>
<g>
</g>
<g>
</g>
</svg>
